<svg width="155" height="99" viewBox="0 0 155 99" fill="none" xmlns="http://www.w3.org/2000/svg">
<g opacity="0.15">
<path d="M109.399 -93.6801C109.399 -93.6801 89.9864 -53.4664 95.4906 -27.7245C101.75 1.54773 131.734 4.19297 144.343 31.3417C154.972 54.2277 140.292 76.8454 158.412 94.4069C167.405 103.123 186.653 109.602 186.653 109.602" stroke="white" stroke-width="0.811107"/>
<path d="M128.185 -113.657C128.185 -113.657 102.417 -77.1875 103.608 -50.8908C104.963 -20.9875 134.102 -13.4421 142.07 15.412C148.786 39.7356 130.583 59.6279 145.564 79.9329C153 90.0106 170.919 99.5697 170.919 99.5697" stroke="white" stroke-width="0.811107"/>
<path d="M47.5706 -58.5842C47.5706 -58.5842 52.0905 -14.1592 70.2597 4.88855C90.9208 26.5487 117.85 13.101 142.809 29.6269C163.848 43.558 163.186 70.5141 187.819 75.9863C200.045 78.7023 219.836 74.1422 219.836 74.1422" stroke="white" stroke-width="0.811107"/>
</g>
</svg>
