<svg xmlns="http://www.w3.org/2000/svg" width="174" height="94" viewBox="0 0 174 94" fill="none">
<g opacity="0.15">
<path d="M108.899 -93.6801C108.899 -93.6801 89.4864 -53.4664 94.9906 -27.7245C101.25 1.54773 131.234 4.19297 143.843 31.3417C154.472 54.2277 139.792 76.8454 157.912 94.4069C166.905 103.123 186.153 109.602 186.153 109.602" stroke="#262329" stroke-width="0.811107"/>
<path d="M127.685 -113.657C127.685 -113.657 101.917 -77.1876 103.108 -50.8908C104.463 -20.9875 133.602 -13.4422 141.57 15.4119C148.286 39.7356 130.083 59.6278 145.064 79.9329C152.5 90.0105 170.419 99.5696 170.419 99.5696" stroke="#262329" stroke-width="0.811107"/>
<path d="M47.0703 -58.5843C47.0703 -58.5843 51.5903 -14.1593 69.7595 4.88849C90.4205 26.5486 117.35 13.1009 142.308 29.6268C163.348 43.5579 162.686 70.514 187.319 75.9863C199.545 78.7022 219.336 74.1422 219.336 74.1422" stroke="#262329" stroke-width="0.811107"/>
</g>
</svg>