<svg xmlns="http://www.w3.org/2000/svg" width="14" height="15" viewBox="0 0 14 15" fill="none">
    <path fill-rule="evenodd" clip-rule="evenodd" d="M0.25 11.1526V5.44287H13.75V11.1984C13.75 13.5526 12.2681 15.0001 9.89709 15.0001H4.0955C1.74671 15.0001 0.25 13.5226 0.25 11.1526ZM3.96961 9.30774C3.62878 9.32349 3.34722 9.05274 3.3324 8.70849C3.3324 8.36349 3.59914 8.07849 3.93997 8.06274C4.2734 8.06274 4.54755 8.32599 4.55496 8.66274C4.56977 9.00849 4.30303 9.29349 3.96961 9.30774ZM7.01465 9.30774C6.67382 9.32349 6.39226 9.05274 6.37744 8.70849C6.37744 8.36349 6.64418 8.07849 6.98502 8.06274C7.31844 8.06274 7.59259 8.32599 7.6 8.66274C7.61482 9.00849 7.34808 9.29349 7.01465 9.30774ZM10.038 12.0675C9.69715 12.06 9.423 11.775 9.423 11.43C9.41559 11.085 9.68974 10.8007 10.0306 10.7932H10.038C10.3862 10.7932 10.6678 11.0782 10.6678 11.43C10.6678 11.7825 10.3862 12.0675 10.038 12.0675ZM6.37744 11.4302C6.39226 11.7752 6.67382 12.0459 7.01465 12.0302C7.34808 12.0159 7.61482 11.7309 7.6 11.3859C7.59259 11.0484 7.31844 10.7852 6.98502 10.7852C6.64418 10.8009 6.37744 11.0852 6.37744 11.4302ZM3.32507 11.4302C3.33989 11.7752 3.62145 12.0459 3.96229 12.0302C4.29571 12.0159 4.56245 11.7309 4.54763 11.3859C4.54022 11.0484 4.26607 10.7852 3.93265 10.7852C3.59181 10.8009 3.32507 11.0852 3.32507 11.4302ZM9.43018 8.7008C9.43018 8.3558 9.69692 8.0783 10.0378 8.0708C10.3712 8.0708 10.6379 8.34005 10.6527 8.6708C10.6601 9.0158 10.3934 9.3008 10.06 9.30755C9.71914 9.31505 9.43758 9.05255 9.43018 8.7083V8.7008Z" fill="#C7FF24"/>
    <path opacity="0.4" d="M0.25293 5.44256C0.262562 5.00231 0.299609 4.12856 0.369258 3.84731C0.724911 2.26556 1.93265 1.26056 3.65905 1.11731H10.3424C12.0539 1.26806 13.2765 2.27981 13.6322 3.84731C13.7011 4.12106 13.7381 5.00156 13.7477 5.44256H0.25293Z" fill="#C7FF24"/>
    <path d="M4.22873 3.4425C4.55475 3.4425 4.79926 3.19575 4.79926 2.865V0.57825C4.79926 0.2475 4.55475 0 4.22873 0C3.90271 0 3.6582 0.2475 3.6582 0.57825V2.865C3.6582 3.19575 3.90271 3.4425 4.22873 3.4425Z" fill="#C7FF24"/>
    <path d="M9.77072 3.4425C10.0893 3.4425 10.3412 3.19575 10.3412 2.865V0.57825C10.3412 0.2475 10.0893 0 9.77072 0C9.44471 0 9.2002 0.2475 9.2002 0.57825V2.865C9.2002 3.19575 9.44471 3.4425 9.77072 3.4425Z" fill="#C7FF24"/>
</svg>