<svg width="23" height="22" viewBox="0 0 23 22" fill="none" xmlns="http://www.w3.org/2000/svg">
<path d="M12.2122 14.8958H10.4889C9.26969 14.8958 8.27051 13.8691 8.27051 12.6041C8.27051 12.2283 8.58217 11.9166 8.95801 11.9166C9.33384 11.9166 9.64551 12.2283 9.64551 12.6041C9.64551 13.1083 10.0214 13.5208 10.4889 13.5208H12.2122C12.5697 13.5208 12.8538 13.2 12.8538 12.8058C12.8538 12.3108 12.7164 12.2375 12.4047 12.1275L9.64551 11.165C9.05884 10.9541 8.27051 10.5325 8.27051 9.18497C8.27051 8.03914 9.17802 7.09497 10.2872 7.09497H12.0105C13.2297 7.09497 14.2288 8.12164 14.2288 9.38664C14.2288 9.76247 13.9172 10.0741 13.5413 10.0741C13.1655 10.0741 12.8538 9.76247 12.8538 9.38664C12.8538 8.88247 12.478 8.46997 12.0105 8.46997H10.2872C9.92969 8.46997 9.64551 8.7908 9.64551 9.18497C9.64551 9.67997 9.783 9.75329 10.0947 9.86329L12.8538 10.8258C13.4405 11.0366 14.2288 11.4583 14.2288 12.8058C14.2288 13.9608 13.3213 14.8958 12.2122 14.8958Z" fill="white"/>
<path d="M11.25 15.8125C10.8742 15.8125 10.5625 15.5008 10.5625 15.125V6.875C10.5625 6.49917 10.8742 6.1875 11.25 6.1875C11.6258 6.1875 11.9375 6.49917 11.9375 6.875V15.125C11.9375 15.5008 11.6258 15.8125 11.25 15.8125Z" fill="white"/>
<path d="M11.2497 20.8541C5.81384 20.8541 1.39551 16.4358 1.39551 11C1.39551 5.56415 5.81384 1.14581 11.2497 1.14581C11.6255 1.14581 11.9372 1.45748 11.9372 1.83331C11.9372 2.20915 11.6255 2.52081 11.2497 2.52081C6.57467 2.52081 2.77051 6.32498 2.77051 11C2.77051 15.675 6.57467 19.4791 11.2497 19.4791C15.9247 19.4791 19.7288 15.675 19.7288 11C19.7288 10.6241 20.0405 10.3125 20.4163 10.3125C20.7922 10.3125 21.1038 10.6241 21.1038 11C21.1038 16.4358 16.6855 20.8541 11.2497 20.8541Z" fill="white"/>
<path d="M20.4167 6.18748C20.0408 6.18748 19.7292 5.87581 19.7292 5.49998V2.52081H16.75C16.3742 2.52081 16.0625 2.20915 16.0625 1.83331C16.0625 1.45748 16.3742 1.14581 16.75 1.14581H20.4167C20.7925 1.14581 21.1042 1.45748 21.1042 1.83331V5.49998C21.1042 5.87581 20.7925 6.18748 20.4167 6.18748Z" fill="#C7FF24"/>
<path d="M20.4164 1.14821C20.5905 1.14821 20.7647 1.21238 20.9022 1.34987C21.168 1.61571 21.168 2.05571 20.9022 2.32154L16.3189 6.90487C16.053 7.17071 15.613 7.17071 15.3472 6.90487C15.0814 6.63904 15.0814 6.19904 15.3472 5.93321L19.9305 1.34987C20.068 1.21238 20.2422 1.14821 20.4164 1.14821Z" fill="#C7FF24"/>
</svg>
