<svg width="38" height="38" viewBox="0 0 38 38" fill="none" xmlns="http://www.w3.org/2000/svg">
<path d="M30.0874 33.25V23.75M33.2503 26.9171L30.0837 23.7504L26.917 26.9171M20.5837 4.75H15.517C12.8567 4.75 11.5266 4.75 10.5105 5.26772C9.61677 5.72312 8.89011 6.44978 8.43471 7.34355C7.91699 8.35963 7.91699 9.68975 7.91699 12.35V25.65C7.91699 28.3102 7.91699 29.6404 8.43471 30.6565C8.89011 31.5502 9.61677 32.2769 10.5105 32.7323C11.5266 33.25 12.8567 33.25 15.517 33.25H20.5837M20.5837 4.75L30.0837 14.25M20.5837 4.75V9.18333C20.5837 10.9568 20.5837 11.8436 20.9288 12.521C21.2324 13.1168 21.7168 13.6013 22.3127 13.9049C22.9901 14.25 23.8768 14.25 25.6503 14.25H30.0837M30.0837 14.25V17.4167M14.2503 26.9167H20.5837M14.2503 20.5833H23.7503M14.2503 14.25H15.8337" stroke="#9B9C9E" stroke-width="1.6" stroke-linecap="round" stroke-linejoin="round"/>
</svg>
