<svg width="13" height="15" viewBox="0 0 13 15" fill="none" xmlns="http://www.w3.org/2000/svg">
<path opacity="0.4" d="M11.6067 5.26575C11.2681 5.26575 10.8196 5.25825 10.2611 5.25825C8.89926 5.25825 7.77946 4.131 7.77946 2.75625V0.34425C7.77946 0.1545 7.62723 0 7.43936 0H3.47327C1.62203 0 0.125 1.5195 0.125 3.38175V11.463C0.125 13.4168 1.69332 15 3.62772 15H9.53416C11.3795 15 12.875 13.4902 12.875 11.6265V5.60325C12.875 5.41275 12.7235 5.259 12.5349 5.25975C12.2178 5.262 11.8376 5.26575 11.6067 5.26575" fill="#C7FF24"/>
<path opacity="0.4" d="M9.56302 0.425405C9.33877 0.192155 8.94727 0.352655 8.94727 0.675905V2.65366C8.94727 3.48316 9.62977 4.16566 10.4593 4.16566C10.9828 4.17166 11.7088 4.17316 12.3253 4.17166C12.641 4.17091 12.8015 3.79366 12.5825 3.56566C11.7913 2.74291 10.3745 1.26841 9.56302 0.425405" fill="#C7FF24"/>
<path d="M8.82905 8.03163C8.61005 7.81488 8.25755 7.81338 8.03855 8.03313L6.8468 9.23088V5.61063C6.8468 5.30238 6.5963 5.05188 6.28805 5.05188C5.9798 5.05188 5.7293 5.30238 5.7293 5.61063V9.23088L4.5368 8.03313C4.31855 7.81338 3.9653 7.81488 3.74705 8.03163C3.52805 8.24913 3.52805 8.60238 3.7448 8.82138L5.89205 10.9784H5.8928C5.9438 11.0294 6.00455 11.0706 6.0728 11.0991C6.1403 11.1269 6.2138 11.1419 6.28805 11.1419C6.36305 11.1419 6.43655 11.1269 6.50405 11.0984C6.5708 11.0706 6.63155 11.0294 6.68255 10.9791L6.68405 10.9784L8.83055 8.82138C9.04805 8.60238 9.04805 8.24913 8.82905 8.03163" fill="#C7FF24"/>
</svg>
